<svg version="1.1" id="Layer_1" xmlns="http://www.w3.org/2000/svg" xmlns:xlink="http://www.w3.org/1999/xlink" x="0px" y="0px"
	 width="100%" viewBox="0 0 1920 1280" enable-background="new 0 0 1920 1280" xml:space="preserve">
<path fill="#000000" opacity="1.000000" stroke="none" 
	d="
M1762.000000,1281.000000 
	C1174.666870,1281.000000 587.833679,1281.000000 1.000394,1281.000000 
	C1.000262,854.333618 1.000262,427.667267 1.000131,1.000680 
	C640.999512,1.000453 1280.999023,1.000453 1920.998901,1.000227 
	C1920.999268,427.666046 1920.999268,854.332092 1920.999634,1280.999023 
	C1868.166626,1281.000000 1815.333374,1281.000000 1762.000000,1281.000000 
M928.276733,606.722656 
	C917.110474,621.505249 911.775513,638.106445 912.976440,656.647461 
	C914.558716,681.078064 926.201050,691.943176 945.128601,699.613831 
	C946.237732,700.063293 947.975952,700.413452 948.799866,699.869019 
	C953.000000,697.094116 957.085388,698.822876 961.282654,699.609436 
	C963.801270,700.081543 966.407715,700.150146 968.980591,700.254456 
	C975.309998,700.511108 981.555908,697.238098 988.041260,700.167358 
	C989.692200,700.912964 992.943298,700.653870 994.108215,699.496582 
	C999.098450,694.538696 1005.661194,693.400452 1011.818542,691.251221 
	C1016.531067,689.606445 1021.406372,688.836914 1024.454590,683.744263 
	C1025.811768,681.476929 1029.753174,680.745728 1032.536377,679.346619 
	C1034.131958,678.544495 1035.789551,677.861877 1037.363037,677.020325 
	C1044.197876,673.365112 1047.092041,666.439148 1051.262329,660.500854 
	C1057.923950,651.014832 1057.984009,640.695251 1056.095093,629.971191 
	C1055.808716,628.345459 1055.670654,626.636414 1055.053345,625.134766 
	C1044.972656,600.616516 1026.568359,585.526794 1000.977905,580.195801 
	C971.976685,574.154114 948.028503,584.185730 928.276733,606.722656 
z"/>
<path fill="#B2ADA6" opacity="1.000000" stroke="none" 
	d="
M928.516968,606.461548 
	C948.028503,584.185730 971.976685,574.154114 1000.977905,580.195801 
	C1026.568359,585.526794 1044.972656,600.616516 1055.053345,625.134766 
	C1055.670654,626.636414 1055.808716,628.345459 1056.095093,629.971191 
	C1057.984009,640.695251 1057.923950,651.014832 1051.262329,660.500854 
	C1047.092041,666.439148 1044.197876,673.365112 1037.363037,677.020325 
	C1035.789551,677.861877 1034.131958,678.544495 1032.536377,679.346619 
	C1029.753174,680.745728 1025.811768,681.476929 1024.454590,683.744263 
	C1021.406372,688.836914 1016.531067,689.606445 1011.818542,691.251221 
	C1005.661194,693.400452 999.098450,694.538696 994.108215,699.496582 
	C992.943298,700.653870 989.692200,700.912964 988.041260,700.167358 
	C981.555908,697.238098 975.309998,700.511108 968.980591,700.254456 
	C966.407715,700.150146 963.801270,700.081543 961.282654,699.609436 
	C957.085388,698.822876 953.000000,697.094116 948.799866,699.869019 
	C947.975952,700.413452 946.237732,700.063293 945.128601,699.613831 
	C926.201050,691.943176 914.558716,681.078064 912.976440,656.647461 
	C911.775513,638.106445 917.110474,621.505249 928.516968,606.461548 
z"/>
</svg>